<svg width="318" height="515" fill="none" xmlns="http://www.w3.org/2000/svg"><path opacity=".4" stroke="#F8D008" stroke-width="5" d="M111.168 35.535l17.678 17.678-17.678 17.677-17.677-17.677z"/><path opacity=".4" fill="#6845AE" d="M0 490.745L5.747 485l24.105 24.104-5.746 5.745z"/><path opacity=".4" fill="#6845AE" d="M24.104 485.15l5.745 5.745L5.745 515l-5.746-5.746z"/><g opacity=".5" fill="#6B2C88"><circle cx="207.5" cy="2.5" r="2.5"/><circle cx="225.5" cy="2.5" r="2.5"/><circle cx="243.5" cy="2.5" r="2.5"/><circle cx="261.5" cy="2.5" r="2.5"/><circle cx="279.5" cy="2.5" r="2.5"/><circle cx="297.5" cy="2.5" r="2.5"/><circle cx="315.5" cy="2.5" r="2.5"/><circle cx="207.5" cy="23.5" r="2.5"/><circle cx="225.5" cy="23.5" r="2.5"/><circle cx="243.5" cy="23.5" r="2.5"/><circle cx="261.5" cy="23.5" r="2.5"/><circle cx="279.5" cy="23.5" r="2.5"/><circle cx="297.5" cy="23.5" r="2.5"/><circle cx="315.5" cy="23.5" r="2.5"/><circle cx="207.5" cy="44.5" r="2.5"/><circle cx="225.5" cy="44.5" r="2.5"/><circle cx="243.5" cy="44.5" r="2.5"/><circle cx="261.5" cy="44.5" r="2.5"/><circle cx="279.5" cy="44.5" r="2.5"/><circle cx="297.5" cy="44.5" r="2.5"/><circle cx="315.5" cy="44.5" r="2.5"/><circle cx="207.5" cy="65.5" r="2.5"/><circle cx="225.5" cy="65.5" r="2.5"/><circle cx="243.5" cy="65.5" r="2.5"/><circle cx="261.5" cy="65.5" r="2.5"/><circle cx="279.5" cy="65.5" r="2.5"/><circle cx="297.5" cy="65.5" r="2.5"/><circle cx="315.5" cy="65.5" r="2.5"/><circle cx="207.5" cy="86.5" r="2.5"/><circle cx="225.5" cy="86.5" r="2.5"/><circle cx="243.5" cy="86.5" r="2.5"/><circle cx="261.5" cy="86.5" r="2.5"/><circle cx="279.5" cy="86.5" r="2.5"/><circle cx="297.5" cy="86.5" r="2.5"/><circle cx="315.5" cy="86.5" r="2.5"/></g></svg>