<svg width="748" height="615" fill="none" xmlns="http://www.w3.org/2000/svg"><path d="M490.836 44.798a3.99 3.99 0 01-5.784-5.48l29.143-34.172a6.344 6.344 0 119.198 8.716l-32.557 30.936zm2.842 10.895a2.445 2.445 0 01-2.288-4.313l20.57-12.496a3.845 3.845 0 113.598 6.782l-21.88 10.027zM37.808 515.511a3.988 3.988 0 015.783 5.48l-29.143 34.172a6.345 6.345 0 11-9.197-8.716l32.557-30.936zm-2.842-10.895a2.445 2.445 0 012.288 4.313l-20.57 12.496a3.845 3.845 0 11-3.598-6.781l21.88-10.028z" fill="#F8D008"/><path d="M422 615c141.385 0 256-114.615 256-256S563.385 103 422 103 166 217.615 166 359s114.615 256 256 256z" fill="url(#paint0_linear)"/><path d="M422 389.118c16.633 0 30.118-13.484 30.118-30.118 0-16.633-13.485-30.118-30.118-30.118-16.634 0-30.118 13.485-30.118 30.118 0 16.634 13.484 30.118 30.118 30.118z" fill="#7173F0"/><path d="M422 178.294c-99.801 0-180.706 80.905-180.706 180.706 0 99.801 80.905 180.706 180.706 180.706 99.801 0 180.706-80.905 180.706-180.706 0-99.801-80.905-180.706-180.706-180.706zm0 286.118c-58.218 0-105.412-47.195-105.412-105.412 0-58.217 47.194-105.412 105.412-105.412 58.217 0 105.412 47.195 105.412 105.412 0 58.217-47.195 105.412-105.412 105.412z" fill="#7172F0"/><path d="M736.723 104.648l-46.53-11.458-11.458-46.53c-2.606-10.585-15.778-14.26-23.487-6.551l-49.786 49.786a32.303 32.303 0 00-8.525 30.564l13.038 52.947 52.948 13.038a32.3 32.3 0 0030.563-8.524l49.787-49.786c7.708-7.709 4.035-20.88-6.55-23.486z" fill="#7B7EF7"/><path d="M736.723 104.648l-46.53-11.458-11.458-46.53c-2.606-10.585-15.777-14.258-23.485-6.552l-28.035 28.035a32.303 32.303 0 00-8.525 30.564l13.038 52.947 52.948 13.038a32.3 32.3 0 0030.563-8.524l28.035-28.034c7.707-7.708 4.034-20.88-6.551-23.486z" fill="#7B7EF7"/><path d="M736.723 104.648l-46.53-11.458-11.458-46.53c-2.606-10.584-15.776-14.258-23.484-6.553l-6.286 6.285a32.304 32.304 0 00-8.524 30.564l13.038 52.947 52.948 13.038a32.3 32.3 0 0030.563-8.524l6.283-6.283c7.708-7.709 4.035-20.88-6.55-23.486z" fill="#7B7EF7"/><path d="M422 376.569a17.515 17.515 0 01-12.423-5.145c-6.861-6.861-6.861-17.986 0-24.846l197.716-197.717c6.861-6.861 17.984-6.861 24.846 0 6.861 6.861 6.861 17.985 0 24.846L434.424 371.424A17.517 17.517 0 01422 376.569z" fill="#7173F0"/><defs><linearGradient id="paint0_linear" x1="153.953" y1="359" x2="672.117" y2="359" gradientUnits="userSpaceOnUse"><stop stop-color="#7B75F1"/><stop offset="1" stop-color="#7A7FF9"/></linearGradient></defs></svg>